# Blender v3.1.2 OBJ File: 'planets.blend'
# www.blender.org
mtllib player_1.hull.mtl
o SHip_Torus
v 366.656555 2.337208 9.130678
v 366.029266 2.650779 9.130678
v 366.656555 2.337208 10.408802
v 366.029266 2.650779 10.408802
v 365.667786 2.518981 10.490682
v 367.037781 2.518981 10.490682
v 365.667786 2.335133 10.566834
v 367.037781 2.335133 10.566834
v 365.667786 2.258981 10.750682
v 367.037781 2.258981 10.750682
v 365.667786 2.335133 10.934529
v 367.037781 2.335133 10.934529
v 365.667786 2.518981 11.010682
v 367.037781 2.518981 11.010682
v 365.667786 2.702829 10.934529
v 367.037781 2.702829 10.934529
v 365.667786 2.778981 10.750682
v 367.037781 2.778981 10.750682
v 365.667786 2.702829 10.566834
v 367.037781 2.702829 10.566834
v 366.422180 2.511670 9.991708
v 366.422180 2.511670 10.580050
v 366.402222 2.463506 9.991708
v 366.402222 2.463506 10.580050
v 366.354065 2.443556 9.991708
v 366.354065 2.443556 10.580050
v 366.305908 2.463506 9.991708
v 366.305908 2.463506 10.580050
v 366.285950 2.511670 9.991708
v 366.285950 2.511670 10.580050
v 366.305908 2.559834 9.991708
v 366.305908 2.559834 10.580050
v 366.354065 2.579784 9.991708
v 366.354065 2.579784 10.580050
v 366.402222 2.559834 9.991708
v 366.402222 2.559834 10.580050
v 366.463318 2.517172 10.976886
v 366.463318 2.517172 11.565229
v 366.443359 2.469008 10.976886
v 366.443359 2.469008 11.565229
v 366.395203 2.449058 10.976886
v 366.395203 2.449058 11.565229
v 366.347046 2.469008 10.976886
v 366.347046 2.469008 11.565229
v 366.327087 2.517172 10.976886
v 366.327087 2.517172 11.565229
v 366.347046 2.565336 10.976886
v 366.347046 2.565336 11.565229
v 366.395203 2.585286 10.976886
v 366.395203 2.585286 11.565229
v 366.443359 2.565336 10.976886
v 366.443359 2.565336 11.565229
v 366.644714 2.357252 11.083792
v 366.017395 2.670823 11.083792
v 366.644714 2.357252 12.361917
v 366.017395 2.670823 12.361917
vt 0.000000 0.000000
vt 1.000000 0.000000
vt 1.000000 1.000000
vt 0.000000 1.000000
vt 1.000000 0.500000
vt 1.000000 1.000000
vt 0.875000 1.000000
vt 0.875000 0.500000
vt 0.750000 1.000000
vt 0.750000 0.500000
vt 0.625000 1.000000
vt 0.625000 0.500000
vt 0.500000 1.000000
vt 0.500000 0.500000
vt 0.375000 1.000000
vt 0.375000 0.500000
vt 0.250000 1.000000
vt 0.250000 0.500000
vt 0.419706 0.419706
vt 0.250000 0.490000
vt 0.080294 0.419706
vt 0.010000 0.250000
vt 0.080294 0.080294
vt 0.250000 0.010000
vt 0.419706 0.080294
vt 0.490000 0.250000
vt 0.125000 1.000000
vt 0.125000 0.500000
vt 0.000000 1.000000
vt 0.000000 0.500000
vt 0.750000 0.490000
vt 0.919706 0.419706
vt 0.990000 0.250000
vt 0.919706 0.080294
vt 0.750000 0.010000
vt 0.580294 0.080294
vt 0.510000 0.250000
vt 0.580294 0.419706
vt 1.000000 0.500000
vt 1.000000 1.000000
vt 0.875000 1.000000
vt 0.875000 0.500000
vt 0.750000 1.000000
vt 0.750000 0.500000
vt 0.625000 1.000000
vt 0.625000 0.500000
vt 0.500000 1.000000
vt 0.500000 0.500000
vt 0.375000 1.000000
vt 0.375000 0.500000
vt 0.250000 1.000000
vt 0.250000 0.500000
vt 0.419706 0.419706
vt 0.250000 0.490000
vt 0.080294 0.419706
vt 0.010000 0.250000
vt 0.080294 0.080294
vt 0.250000 0.010000
vt 0.419706 0.080294
vt 0.490000 0.250000
vt 0.125000 1.000000
vt 0.125000 0.500000
vt 0.000000 1.000000
vt 0.000000 0.500000
vt 0.750000 0.490000
vt 0.919706 0.419706
vt 0.990000 0.250000
vt 0.919706 0.080294
vt 0.750000 0.010000
vt 0.580294 0.080294
vt 0.510000 0.250000
vt 0.580294 0.419706
vt 1.000000 0.500000
vt 1.000000 1.000000
vt 0.875000 1.000000
vt 0.875000 0.500000
vt 0.750000 1.000000
vt 0.750000 0.500000
vt 0.625000 1.000000
vt 0.625000 0.500000
vt 0.500000 1.000000
vt 0.500000 0.500000
vt 0.375000 1.000000
vt 0.375000 0.500000
vt 0.250000 1.000000
vt 0.250000 0.500000
vt 0.419706 0.419706
vt 0.250000 0.490000
vt 0.080294 0.419706
vt 0.010000 0.250000
vt 0.080294 0.080294
vt 0.250000 0.010000
vt 0.419706 0.080294
vt 0.490000 0.250000
vt 0.125000 1.000000
vt 0.125000 0.500000
vt 0.000000 1.000000
vt 0.000000 0.500000
vt 0.750000 0.490000
vt 0.919706 0.419706
vt 0.990000 0.250000
vt 0.919706 0.080294
vt 0.750000 0.010000
vt 0.580294 0.080294
vt 0.510000 0.250000
vt 0.580294 0.419706
vt 0.000000 0.000000
vt 1.000000 0.000000
vt 1.000000 1.000000
vt 0.000000 1.000000
vn 0.4471 0.8945 0.0000
vn -0.0000 -0.3827 -0.9239
vn 0.0000 -0.9239 -0.3827
vn -0.0000 -0.9239 0.3827
vn 0.0000 -0.3827 0.9239
vn 0.0000 0.3827 0.9239
vn 0.0000 0.9239 0.3827
vn 1.0000 -0.0000 0.0000
vn -0.0000 0.9239 -0.3827
vn 0.0000 0.3827 -0.9239
vn -1.0000 0.0000 0.0000
vn 0.9237 -0.3830 0.0000
vn 0.3829 -0.9238 0.0000
vn -0.3827 -0.9239 0.0000
vn -0.9237 -0.3830 0.0000
vn -0.9237 0.3830 0.0000
vn -0.3827 0.9239 0.0000
vn 0.0000 0.0000 1.0000
vn 0.3829 0.9238 0.0000
vn 0.9237 0.3830 0.0000
vn 0.0000 0.0000 -1.0000
vn 0.9239 -0.3826 0.0000
vn 0.3827 -0.9239 0.0000
vn 0.3827 0.9239 0.0000
vn 0.9239 0.3826 0.0000
usemtl None
s off
f 4/1/1 3/2/1 1/3/1 2/4/1
f 5/5/2 6/6/2 8/7/2 7/8/2
f 7/8/3 8/7/3 10/9/3 9/10/3
f 9/10/4 10/9/4 12/11/4 11/12/4
f 11/12/5 12/11/5 14/13/5 13/14/5
f 13/14/6 14/13/6 16/15/6 15/16/6
f 15/16/7 16/15/7 18/17/7 17/18/7
f 8/19/8 6/20/8 20/21/8 18/22/8 16/23/8 14/24/8 12/25/8 10/26/8
f 17/18/9 18/17/9 20/27/9 19/28/9
f 19/28/10 20/27/10 6/29/10 5/30/10
f 5/31/11 7/32/11 9/33/11 11/34/11 13/35/11 15/36/11 17/37/11 19/38/11
f 21/39/12 22/40/12 24/41/12 23/42/12
f 23/42/13 24/41/13 26/43/13 25/44/13
f 25/44/14 26/43/14 28/45/14 27/46/14
f 27/46/15 28/45/15 30/47/15 29/48/15
f 29/48/16 30/47/16 32/49/16 31/50/16
f 31/50/17 32/49/17 34/51/17 33/52/17
f 24/53/18 22/54/18 36/55/18 34/56/18 32/57/18 30/58/18 28/59/18 26/60/18
f 33/52/19 34/51/19 36/61/19 35/62/19
f 35/62/20 36/61/20 22/63/20 21/64/20
f 21/65/21 23/66/21 25/67/21 27/68/21 29/69/21 31/70/21 33/71/21 35/72/21
f 37/73/22 38/74/22 40/75/22 39/76/22
f 39/76/23 40/75/23 42/77/23 41/78/23
f 41/78/14 42/77/14 44/79/14 43/80/14
f 43/80/15 44/79/15 46/81/15 45/82/15
f 45/82/16 46/81/16 48/83/16 47/84/16
f 47/84/17 48/83/17 50/85/17 49/86/17
f 40/87/18 38/88/18 52/89/18 50/90/18 48/91/18 46/92/18 44/93/18 42/94/18
f 49/86/24 50/85/24 52/95/24 51/96/24
f 51/96/25 52/95/25 38/97/25 37/98/25
f 37/99/21 39/100/21 41/101/21 43/102/21 45/103/21 47/104/21 49/105/21 51/106/21
f 56/107/1 55/108/1 53/109/1 54/110/1
o Tri
v -1 -1 0
v 1 -1 0
v 0 1 0
vt 1.000000 1.000000
vt 0.968750 0.500000
vt 1.000000 0.500000
vn 0 -1 0
s off
f 2/1/1 3/2/1 1/3/1
o Tri
v -1 -1 0
v 1 -1 0
v 0 1 0
vt 1.000000 1.000000
vt 0.968750 0.500000
vt 1.000000 0.500000
vn 0 -1 0
s off
f 2/1/1 3/2/1 1/3/1
